<svg xmlns="http://www.w3.org/2000/svg" viewBox="0 0 256 256">
  <path fill="currentColor" d="m229.7 75.9.1 6.8C229.8 152 177.1 232 80.6 232c-29.8 0-57.4-8.6-80.6-23.6a108.5 108.5 0 0 0 77.8-21.8 52.6 52.6 0 0 1-49-36.3c3.2.4 6.4.8 9.9.8 4.7 0 9.4-.7 13.8-1.8-24-4.9-42.1-26-42.1-51.5V97c7 4 15.1 6.4 23.7 6.7A52.4 52.4 0 0 1 18 33.6a149.1 149.1 0 0 0 108.2 55 52.4 52.4 0 0 1 89.5-48c11.8-2.3 23.2-6.7 33.3-12.7a52.3 52.3 0 0 1-23.1 29c10.5-1.2 20.8-4.1 30.2-8.2-7.1 10.4-16 19.7-26.3 27.2z"/>
</svg>
