<?xml version="1.0" encoding="UTF-8" standalone="no"?>
<svg
   fill="#009933"
   viewBox="0 0 180 180"
   version="1.1"
   id="svg10"
   sodipodi:docname="favicon.svg"
   inkscape:version="1.2.1 (2ed6d7ae0b, 2022-08-22, custom)"
   width="180"
   height="180"
   xmlns:inkscape="http://www.inkscape.org/namespaces/inkscape"
   xmlns:sodipodi="http://sodipodi.sourceforge.net/DTD/sodipodi-0.dtd"
   xmlns="http://www.w3.org/2000/svg"
   xmlns:svg="http://www.w3.org/2000/svg">
  <defs
     id="defs14" />
  <sodipodi:namedview
     id="namedview12"
     pagecolor="#f9cc41"
     bordercolor="#000000"
     borderopacity="0.25"
     inkscape:showpageshadow="2"
     inkscape:pageopacity="0"
     inkscape:pagecheckerboard="true"
     inkscape:deskcolor="#d1d1d1"
     showgrid="false"
     inkscape:zoom="3.5764706"
     inkscape:cx="90.032895"
     inkscape:cy="90.172697"
     inkscape:window-width="1920"
     inkscape:window-height="1016"
     inkscape:window-x="0"
     inkscape:window-y="0"
     inkscape:window-maximized="1"
     inkscape:current-layer="svg10"
     shape-rendering="auto">
    <inkscape:grid
       type="xygrid"
       id="grid325" />
  </sodipodi:namedview>
  <g
     id="g323"
     transform="translate(-1.8387995,1.2985142)">
    <path
       fill="#ffffff"
       d="m 176.28038,94.381087 c 0.0234,-0.664003 -0.0835,-1.326162 -0.31439,-1.949153 -3.70967,-8.613993 -7.29359,-17.290864 -11.19189,-25.841982 -1.77591,-4.115276 -5.769,-6.834508 -10.24877,-6.979222 -4.58994,-0.314379 -9.24275,0 -13.83269,-0.188628 -5.84746,-0.188627 -9.24275,3.646802 -9.17988,9.117001 0.25151,12.135045 0.18863,24.270088 0.18863,36.468007 v 2.01203 l -26.65937,0.12575 v -5.65883 l 1.76053,-0.37725 c 7.33955,-1.3123 13.59275,-6.090032 16.78785,-12.826683 3.1438,-6.350463 3.01804,-13.203933 1.88628,-19.868774 C 123.47901,56.942121 113.34789,48.687136 101.7096,49.047584 l -24.081456,0.06287 -1.949153,-0.06287 c -0.06287,-2.703663 0.06287,-5.218699 -1.697648,-7.356477 -1.621826,-2.007273 -4.085071,-3.145942 -6.664843,-3.080919 -2.577913,-0.06287 -5.030072,0.125749 -7.167851,1.886277 -2.703663,2.263531 -2.829415,5.407326 -2.829415,8.739747 h -1.886275 c -8.048114,0.06287 -16.033349,0 -24.081461,0.125749 -9.179878,0.125749 -16.347726,4.024057 -20.937666,12.072168 -1.5090204,2.766537 -2.1377794,6.036083 -3.1437932,9.054126 l 0.062874,11.506284 c 0.7545111,2.515034 1.3832701,5.092946 2.5779104,7.356476 3.6082238,6.97074 10.4882578,11.651995 18.2968798,12.449425 v 5.78458 h -1.760525 l -7.859483,0.0629 h -8.048112 c -1.3203927,0 -2.3892826,0.31438 -3.0809176,1.25751 v 2.13778 c 1.6976488,2.38929 4.4013116,1.13177 6.6648416,1.69765 -5.6725567,6.89107 -4.4759242,17.11699 2.634348,22.51223 7.110271,5.39523 17.280797,3.79463 22.390249,-3.52371 l 0.817387,1.00601 c 3.864068,5.04861 10.423856,7.21858 16.536356,5.4702 5.438999,-1.45877 9.668923,-5.73677 11.066156,-11.1919 0.188627,-0.50301 0.628757,-1.38327 1.006014,-1.38327 3.458172,-0.12575 6.853469,-0.12575 10.248767,-0.12575 1.634771,6.28759 3.709675,7.92236 10.060138,7.85949 4.149807,0 8.236738,-0.12575 12.386548,0 4.96719,0.12574 8.73974,-2.51504 9.17987,-7.60798 0,-0.12575 0.12575,-0.18863 0.25151,-0.37726 h 1.57189 c 6.03609,0 12.07217,0 18.10826,-0.12575 1.38326,0 1.8234,0.44013 2.20065,1.69765 1.69765,5.7217 5.4702,9.43138 11.25478,10.87752 5.27116,1.41849 10.89745,-0.12031 14.71295,-4.02405 2.45214,-2.32641 3.83541,-5.28158 4.52705,-8.67687 l 7.608,-0.0629 c 3.77254,-0.0629 5.78458,-2.0749 5.7217,-5.91033 L 176.28032,94.255338 Z M 63.418194,44.269018 c 1.06889,-0.94314 4.527065,-1.006014 5.847458,-0.188628 1.320394,0.817385 1.571896,2.200655 1.131766,5.03007 l -7.985238,0.06287 c -0.06287,-1.760523 -0.503006,-3.521048 1.006014,-4.904316 z M 25.881297,134.05576 c -5.885599,-0.0672 -10.650088,-4.80379 -10.751775,-10.6889 -0.05612,-9.59444 11.528086,-14.45105 18.331524,-7.6874 6.803441,6.76366 2.014858,18.37614 -7.579749,18.3763 z m 13.203932,-19.30289 -1.634771,-2.0749 h 3.20667 z m 13.329687,19.17714 c -5.920322,-0.0672 -10.712951,-4.83195 -10.814651,-10.75178 0.06793,-5.87495 4.813949,-10.62097 10.6889,-10.68889 5.60877,0.3774 9.980071,5.01169 10.029525,10.63293 0.04946,5.62123 -4.239636,10.33172 -9.840898,10.80774 z M 33.61503,107.45927 v -5.34445 l 66.27117,-0.31438 v 5.34445 z m 71.67849,17.9825 c -0.18862,1.8234 -1.06889,2.89229 -2.95516,2.95516 -5.155822,0.0838 -10.3326,0.1048 -15.53034,0.0629 -1.886277,0 -2.892291,-1.06889 -3.018043,-3.01804 -0.06748,-0.77401 -0.06748,-1.55241 0,-2.32641 0.188628,-1.94915 1.131766,-2.89229 3.080917,-2.89229 l 7.733733,-0.0629 h 7.419353 c 2.0749,0 3.01804,0.94314 3.20667,2.95517 0.067,0.75302 0.067,1.51051 0,2.26353 z m 58.03442,-49.734817 c 1.82341,3.961179 3.52106,8.048112 5.21871,12.072167 0.0311,0.229499 0.0311,0.462136 0,0.691635 h -3.45818 l -11.6949,0.06287 c -4.21269,0 -6.28759,-2.074904 -6.28759,-6.224713 v -7.356471 h 14.71296 c 0.58924,0.01828 1.14083,0.294076 1.509,0.754512 z m -15.71896,57.782927 c -5.94829,1e-4 -10.78006,-4.80358 -10.81464,-10.75178 0.41268,-5.60441 5.07164,-9.94568 10.69121,-9.96215 5.61956,-0.0165 10.30391,4.29738 10.74946,9.89928 -0.0325,5.88617 -4.74133,10.67864 -10.62603,10.81465 z m 23.7587,-29.519 0.072,7.95047 -2.69953,-0.35199 -2.27014,-1.01349 -0.50847,-1.30699 -0.038,-1.23462 0.16976,-1.56983 0.62182,-1.66401 1.42055,-0.67354 2.04559,-0.0933 z"
       id="path2"
       sodipodi:nodetypes="ccccccscccccccccccccccccccccccscccsccccccccccsccccccccccscccccsccccccccsccccccccccccccsccccccccscccccsccccccccccccc"
       style="stroke-width:0.628759" />
    <path
       fill="currentColor"
       d="m 22.926132,133.427 a 10.940402,10.940402 0 0 1 -6.539092,-5.4702 10.311643,10.311643 0 0 1 4.778568,-14.08419 c 1.886276,-0.94314 2.012026,-0.94314 4.652813,-0.94314 2.515036,0 2.829414,0.0629 4.401311,0.81739 a 10.688898,10.688898 0 0 1 5.658828,12.70092 11.317657,11.317657 0 0 1 -6.97922,6.97922 c -1.571897,0.44013 -4.527064,0.50301 -5.973208,0 z m 26.847997,0 c -3.080919,-0.81738 -5.658829,-3.01804 -7.104974,-5.97321 -0.691635,-1.32039 -0.754511,-1.69764 -0.754511,-4.27556 0,-2.57791 0.06287,-2.95516 0.754511,-4.27556 1.571897,-3.26954 4.589938,-5.53307 8.048113,-6.09895 4.464186,-0.75451 9.431381,2.20065 11.12903,6.66484 a 10.563146,10.563146 0 0 1 -7.293603,14.02132 c -1.634771,0.44013 -3.018041,0.44013 -4.778566,-0.0629 z m 94.565311,-0.56588 a 11.003278,11.003278 0 0 1 -6.47621,-5.84746 c -0.62876,-1.38327 -0.69164,-1.8234 -0.69164,-4.33843 0,-2.64079 0.0629,-2.89229 0.81739,-4.52707 a 10.563146,10.563146 0 0 1 19.11426,0.18863 c 0.75451,1.5719 0.81738,1.94915 0.81738,4.27556 0,2.32641 -0.0628,2.70366 -0.81738,4.27556 a 11.066153,11.066153 0 0 1 -5.15582,5.28157 7.7966081,7.7966081 0 0 1 -4.14981,1.00602 c -1.69765,0.0629 -2.57791,-0.0629 -3.52105,-0.37726 z"
       id="path4"
       style="fill:#666666;stroke-width:0.628759" />
    <path
       fill="currentColor"
       d="m 85.550502,128.01968 c -1.257518,-0.62876 -1.509021,-1.44615 -1.509021,-3.83543 0,-2.01203 0,-2.20066 0.691634,-2.89229 0.880263,-0.88026 2.515036,-1.06889 11.254781,-1.06889 7.419354,0 8.048114,0.12575 8.802624,1.50902 0.503,1.13177 0.56588,3.8983 0,5.03007 -0.62876,1.44614 -0.69164,1.44614 -9.997265,1.5719 -7.419354,0.12575 -8.551118,0.0629 -9.242753,-0.31438 z"
       id="path8"
       style="fill:#808080;stroke-width:0.628759" />
  </g>
</svg>
