<?xml version="1.0" encoding="UTF-8" standalone="no"?>
<!-- Created with Inkscape (http://www.inkscape.org/) -->

<svg
   version="1.1"
   id="svg213"
   width="480"
   height="500"
   viewBox="0 0 480 500"
   sodipodi:docname="iconoOriginal.svg"
   inkscape:version="1.2.1 (0f2f062aeb, 2022-09-21, custom)"
   xmlns:inkscape="http://www.inkscape.org/namespaces/inkscape"
   xmlns:sodipodi="http://sodipodi.sourceforge.net/DTD/sodipodi-0.dtd"
   xmlns="http://www.w3.org/2000/svg"
   xmlns:svg="http://www.w3.org/2000/svg">
  <defs
     id="defs217" />
  <sodipodi:namedview
     id="namedview215"
     pagecolor="#ffff5d"
     bordercolor="#000000"
     borderopacity="0.25"
     inkscape:showpageshadow="2"
     inkscape:pageopacity="0"
     inkscape:pagecheckerboard="0"
     inkscape:deskcolor="#d1d1d1"
     showgrid="false"
     inkscape:zoom="1"
     inkscape:cx="159"
     inkscape:cy="136.5"
     inkscape:window-width="1920"
     inkscape:window-height="1016"
     inkscape:window-x="0"
     inkscape:window-y="0"
     inkscape:window-maximized="1"
     inkscape:current-layer="g8607" />
  <g
     inkscape:groupmode="layer"
     inkscape:label="Image"
     id="g219"
     transform="translate(-513.94501,-471.84639)">
    <g
       id="g8647">
      <path
         style="fill:#072367;fill-opacity:1;stroke-width:0.634665"
         d="m 883.99272,886.113 v -5.39465 h 8.25064 8.25064 v 5.39465 5.39465 h -8.25064 -8.25064 z"
         id="path8584" />
      <path
         style="fill:#072367;fill-opacity:1;stroke-width:0.634665"
         d="m 913.82196,938.82141 c 0,-17.72411 0.25363,-29.39398 0.68228,-31.3927 1.65688,-7.72577 7.20782,-11.45235 18.59606,-12.48432 6.73774,-0.61056 13.00635,0.60865 17.02139,3.31057 3.21131,2.16106 3.25173,2.16958 4.57271,0.96407 6.88874,-6.28653 27.16809,-5.64583 33.59239,1.06132 3.91518,4.08756 3.89798,3.93366 4.10917,36.7645 l 0.19291,29.9879 h -7.96755 -7.96755 v -26.24388 c 0,-17.57039 -0.2325,-26.91081 -0.70347,-28.26186 -0.9185,-2.63482 -3.45267,-3.88341 -7.8818,-3.88341 -3.10067,0 -3.81534,0.24434 -5.42617,1.85517 l -1.85518,1.85517 v 27.33941 27.3394 h -7.61597 -7.61598 v -26.56121 c 0,-16.91024 -0.24208,-27.25565 -0.66626,-28.47243 -0.82504,-2.36672 -2.89105,-3.35551 -7.0111,-3.35551 -4.05107,0 -6.59143,1.31786 -7.48578,3.88341 -0.47098,1.35105 -0.70348,10.69147 -0.70348,28.26186 v 26.24388 h -7.93331 -7.93331 z"
         id="path8582" />
      <path
         style="fill:#072367;fill-opacity:1;stroke-width:0.634665"
         d="m 883.99272,931.1742 v -35.85856 h 8.25064 8.25064 v 35.85856 35.85855 h -8.25064 -8.25064 z"
         id="path8580" />
      <path
         style="fill:#072367;fill-opacity:1;stroke-width:0.634665"
         d="m 841.99502,966.39501 c -7.00166,-1.11571 -12.24892,-4.44202 -14.25915,-9.03906 -1.09859,-2.51227 -1.19328,-5.25885 -1.36759,-39.66838 l -0.18729,-36.96922 h 8.5966 8.59659 l 0.004,32.20924 c 0.003,20.79679 0.24269,33.07048 0.6785,34.63992 0.91965,3.31194 3.63644,4.4424 9.91429,4.12538 5.98313,-0.30213 7.13711,-1.32798 7.63188,-6.78448 l 0.35337,-3.89691 h 7.84516 7.84516 l -0.014,7.13998 c -0.0108,5.52939 -0.27466,7.71386 -1.1697,9.68408 -1.56749,3.4504 -5.09455,6.39618 -9.12073,7.61755 -3.98339,1.2084 -19.95067,1.80175 -25.34668,0.9419 z"
         id="path8578" />
      <path
         style="fill:#072367;fill-opacity:1;stroke-width:0.634665"
         d="m 733.0681,937.99684 c 0.23436,-32.97947 0.13737,-32.31953 5.43515,-36.98283 3.01142,-2.65075 7.88597,-4.53106 13.79654,-5.32187 1.74532,-0.23352 3.9683,-0.58136 4.93995,-0.77298 l 1.76663,-0.3484 -0.17997,7.17017 -0.17997,7.17017 -2.04676,0.4175 c -2.64088,0.5387 -4.94707,2.06806 -6.3537,4.21349 -1.01512,1.54827 -1.1368,4.12171 -1.30494,27.59907 l -0.18543,25.89159 h -7.94691 -7.94692 z"
         id="path8576" />
      <path
         style="fill:#072367;fill-opacity:1;stroke-width:0.634665"
         d="m 672.64936,923.82889 v -43.20387 l 20.46794,0.20533 c 19.64329,0.19706 20.57264,0.26136 23.06669,1.59594 3.35942,1.79764 6.35991,5.24414 7.20039,8.27068 0.36616,1.31854 0.66734,8.12889 0.66928,15.13411 0.004,15.32955 -0.61519,18.2685 -4.67431,22.17683 -3.67879,3.54214 -6.21912,4.22449 -17.05941,4.5823 l -9.36131,0.309 v -6.98536 -6.98536 l 5.38046,-0.22379 c 4.88313,-0.20311 5.5431,-0.38629 7.13998,-1.98174 1.71337,-1.71185 1.76496,-1.97161 1.96679,-9.90407 0.20117,-7.90617 0.16077,-8.20023 -1.37165,-9.98335 -1.5483,-1.80159 -1.72161,-1.84137 -8.93392,-2.05051 l -7.35498,-0.21329 v 36.23051 36.2305 h -8.56797 -8.56798 z"
         id="path8574" />
      <path
         style="fill:#072367;fill-opacity:1;stroke-width:0.634665"
         d="m 641.04171,937.99684 c 0.23436,-32.97947 0.13737,-32.31953 5.43516,-36.98283 3.01141,-2.65075 7.88597,-4.53106 13.79653,-5.32187 1.74533,-0.23352 3.9683,-0.58136 4.93995,-0.77298 l 1.76663,-0.3484 -0.17997,7.17017 -0.17996,7.17017 -2.04677,0.4175 c -2.64087,0.5387 -4.94707,2.06806 -6.3537,4.21349 -1.01512,1.54827 -1.13679,4.12171 -1.30494,27.59907 l -0.18543,25.89159 h -7.94691 -7.94692 z"
         id="path8572" />
      <path
         style="fill:#072367;fill-opacity:1;stroke-width:0.634665"
         d="m 590.4615,966.31154 c -4.01824,-0.94018 -7.08019,-3.46482 -9.03846,-7.45241 l -1.75206,-3.56767 V 931.1742 c 0,-24.07463 0.003,-24.12219 1.48632,-26.90364 2.04057,-3.82539 4.90585,-6.27759 8.66831,-7.41862 4.94713,-1.5003 17.36392,-1.86913 23.97187,-0.71208 7.53689,1.31971 10.63966,3.19227 12.88131,7.77406 1.66653,3.40626 1.73382,3.95977 2.03655,16.75308 0.17219,7.27675 0.12638,13.97431 -0.10181,14.88348 l -0.41488,1.65303 h -15.21986 -15.21987 v -6.98131 -6.98131 h 7.61598 7.61598 v -4.78037 c 0,-8.36311 -1.86413,-10.45159 -9.32887,-10.45159 -4.61278,0 -6.94026,1.28291 -7.77399,4.28501 -0.83616,3.01085 -0.8863,34.40675 -0.0584,36.58421 0.33512,0.88145 1.19192,2.18523 1.90399,2.89731 1.21997,1.21996 2.05458,1.29464 14.46397,1.29414 l 13.16929,-5.2e-4 v 6.98089 6.98089 l -16.18395,-0.0628 c -8.90117,-0.0345 -17.3258,-0.32997 -18.72139,-0.65651 z"
         id="path8570" />
      <path
         style="fill:#072367;fill-opacity:1;stroke-width:0.634665"
         d="m 517.79116,960.10173 v -7.0316 h 13.86792 c 8.0468,0 14.67017,-0.27966 15.77914,-0.66626 2.64038,-0.92044 3.35551,-2.928 3.35551,-9.41988 0,-7.48644 -0.36298,-7.77381 -16.50128,-13.06371 -10.95161,-3.58977 -14.04747,-5.24184 -16.35683,-8.72862 -1.71636,-2.59144 -1.73287,-2.72026 -1.93643,-15.11447 -0.23367,-14.22733 0.17875,-16.65605 3.44161,-20.26765 3.88378,-4.29888 5.75563,-4.653 26.11695,-4.9409 l 17.92928,-0.25351 v 6.99857 6.99857 l -14.01979,0.19302 c -13.86021,0.19082 -14.03358,0.21007 -15.23195,1.69132 -0.96539,1.19327 -1.21217,2.52355 -1.21217,6.53417 0,4.39269 0.18442,5.22027 1.44401,6.47986 0.91844,0.91844 5.80757,2.91438 13.43311,5.48394 19.5042,6.57228 20.12861,7.28567 20.53774,23.46465 0.43877,17.35091 -1.21241,22.09627 -9.05903,26.03487 l -4.42541,2.22132 -18.58119,0.20895 -18.58119,0.20895 z"
         id="path8568" />
      <path
         style="fill:#072367;fill-opacity:1;stroke-width:0.634665"
         d="m 779.9077,967.58215 c -5.46819,-0.89536 -9.97706,-3.39863 -12.07225,-6.7024 -2.86788,-4.52219 -3.28915,-9.03888 -3.05322,-32.73624 l 0.21085,-21.17973 1.91372,-3.74027 c 1.42502,-2.78514 2.65811,-4.2005 4.82872,-5.54248 4.09532,-2.53195 11.77235,-3.83592 19.91348,-3.38239 13.10376,0.72998 18.86983,4.29598 20.62615,12.75609 0.46819,2.25529 0.64188,11.21548 0.51286,26.4581 -0.1878,22.1888 -0.24601,23.14259 -1.5613,25.58662 -1.76497,3.27957 -3.68206,5.03206 -7.21348,6.59417 -5.44882,2.41028 -15.91244,3.23004 -24.10553,1.88853 z m 13.96263,-13.42726 c 2.76783,-1.39646 3.09894,-3.84058 3.1375,-23.15974 0.0461,-23.12588 -0.13454,-23.62088 -8.62229,-23.62088 -2.99609,0 -3.75662,0.25846 -5.29897,1.80081 -2.47202,2.47201 -2.67466,4.51544 -2.43337,24.53778 0.21867,18.14618 0.37389,19.09833 3.34883,20.54363 1.8617,0.90445 7.99951,0.84126 9.8683,-0.1016 z"
         id="path223" />
      <g
         id="g8607"
         transform="translate(-2.8225303,6.4047124)">
        <path
           style="fill:#072367;fill-opacity:1;stroke-width:0.634665"
           d="m 740.74462,849.52159 c -33.3593,-4.29092 -60.9351,-17.1637 -81.8384,-38.20336 -20.64412,-20.77881 -33.96982,-49.63126 -37.72946,-81.69086 -1.96943,-16.79383 2.24919,-43.58285 10.69706,-67.92837 17.4525,-50.29548 54.6663,-106.12054 115.1042,-172.66966 5.7195,-6.29783 11.6068,-12.82848 13.0828,-14.51255 l 2.6838,-3.06194 10.667,11.0219 c 58.9882,63.57517 126.56704,143.94003 140.05794,226.57203 4.6789,31.97469 -8.5383,68.93158 -34.2223,95.68952 -24.0562,25.06208 -56.28834,40.36933 -94.26224,44.76577 -10.4747,1.21272 -34.8734,1.22238 -44.2404,0.0175 z"
           id="path8586"
           sodipodi:nodetypes="sssssccccssss" />
        <path
           id="path1029"
           style="fill:#4ca62e;fill-opacity:1;stroke-width:0.634665"
           d="m 780.07445,578.92497 c -4.82403,0 -15.09874,0.44354 -22.83429,0.98547 l -14.0655,0.98546 -2.98496,1.51229 -2.98489,1.51229 -2.02674,2.30934 c -1.11472,1.26962 -2.68171,3.35746 -3.48196,4.64098 -0.80031,1.28352 -3.79275,6.87034 -6.65033,12.41439 l -5.19505,10.08026 0.75119,0.90613 c 0.41348,0.49822 1.77433,1.41047 3.02329,2.02795 1.24889,0.61749 6.55367,3.35682 11.78966,6.08758 5.23598,2.73077 10.09117,5.3587 10.7893,5.83966 l 1.26933,0.87391 1.26806,-0.17726 1.26812,-0.17727 2.74194,-5.07731 c 1.50841,-2.79252 4.3432,-8.07611 6.29956,-11.7413 1.95642,-3.66518 4.22122,-7.91888 5.0327,-9.45303 0.81148,-1.53416 1.79654,-3.17636 2.18908,-3.64933 0.39254,-0.47297 1.17845,-0.85664 1.74654,-0.85283 l 1.0326,0.006 6.51274,10.8959 6.51153,10.8959 -0.35205,1.10943 -0.35205,1.11066 -2.19283,1.29412 c -1.20624,0.71171 -2.19403,1.58903 -2.19403,1.94986 v 0.65574 l 3.33199,-0.0359 c 1.83259,-0.0198 8.43139,-0.2717 14.66297,-0.55905 l 11.32979,-0.52186 1.17882,-1.18628 c 0.6485,-0.65276 3.88371,-6.53874 7.18834,-13.07881 l 6.00825,-11.89128 -0.64711,-0.39915 -0.64825,-0.40038 -3.39152,1.71558 -3.39152,1.71681 -1.3102,-0.4165 c -0.72047,-0.22867 -1.63325,-1.03935 -2.02921,-1.80111 -0.39597,-0.76176 -2.51562,-4.0978 -4.70915,-7.41392 -2.19359,-3.31612 -4.94569,-6.94994 -6.11608,-8.07586 l -2.12714,-2.04779 -3.73481,-1.2842 -3.73488,-1.28545 z m -105.33575,137.66399 -2.31678,0.20329 c -1.27422,0.11148 -3.30496,0.61477 -4.51209,1.11934 -1.20713,0.50456 -2.74461,1.17843 -3.41754,1.49742 -0.67281,0.31899 -3.30273,1.39637 -5.84336,2.39362 -2.54075,0.99728 -5.4399,2.25999 -6.44331,2.80641 -1.00347,0.5464 -3.15676,1.46597 -4.7848,2.04283 l -2.96007,1.04868 -0.56156,1.31024 -0.56028,1.31148 1.26559,0.99042 c 0.6961,0.54501 2.94548,1.34424 4.99798,1.77508 l 3.73113,0.78341 0.0781,1.04869 c 0.0438,0.57676 -0.32476,4.52328 -0.81815,8.77126 l -0.89748,7.72382 0.3471,4.04103 0.3471,4.04103 1.64366,2.79277 1.64371,2.79277 15.16252,12.71065 c 8.33912,6.99033 16.98198,13.85805 19.20731,15.26295 2.22532,1.40488 4.9262,2.78566 6.00202,3.06796 1.07589,0.2823 3.39996,0.40931 5.16408,0.28262 1.76411,-0.1267 4.87023,-0.67333 6.90198,-1.21479 2.03175,-0.54178 4.2433,-1.268 4.9137,-1.61517 0.6704,-0.34718 2.32712,-1.0726 3.68156,-1.61145 1.35438,-0.53882 3.42516,-1.4488 4.60132,-2.023 1.17616,-0.57419 3.8038,-1.66673 5.83968,-2.4271 2.03588,-0.76034 4.31883,-1.6973 5.07357,-2.08249 l 1.37221,-0.70036 -0.19211,-2.19653 c -0.10561,-1.2082 -0.51802,-2.82723 -0.91608,-3.59727 -0.398,-0.77005 -2.78687,-6.66669 -5.30909,-13.10359 -2.52229,-6.4369 -4.96556,-12.46246 -5.42937,-13.38994 l -0.8429,-1.68583 -1.58298,-0.25411 -1.58419,-0.25288 -1.31762,0.76111 c -0.72485,0.41863 -2.56684,1.22232 -4.09435,1.78623 -1.52745,0.56392 -3.32685,1.29453 -3.9989,1.62385 -0.67198,0.32931 -2.47202,1.06662 -3.99889,1.63749 -1.52682,0.57082 -4.43542,1.72437 -6.46438,2.56345 -2.02896,0.83907 -4.52002,1.85445 -5.53599,2.25727 -1.01591,0.40283 -2.75622,1.00239 -3.86625,1.3313 -1.10997,0.32891 -2.01906,0.50331 -2.02052,0.38799 6e-5,-0.11532 0.81415,-5.25948 1.81228,-11.4314 0.99833,-6.17194 2.05911,-11.51092 2.35645,-11.86525 l 0.54048,-0.64458 2.99111,0.48095 2.99232,0.48096 0.96812,-0.47228 0.96932,-0.47228 -0.32971,-1.45155 -0.32971,-1.45278 -11.83802,-9.59187 z m 206.86224,0.71524 -2.24735,0.3446 c -1.2362,0.18967 -2.96261,0.51568 -3.83528,0.72392 -0.8726,0.20823 -5.44225,1.06897 -10.15463,1.91267 -4.71232,0.8437 -10.51798,1.90379 -12.90274,2.35644 l -4.33609,0.82308 -0.93956,1.26933 -0.93962,1.26933 0.38302,1.90399 c 0.21071,1.0472 1.66955,8.5797 3.24149,16.73805 1.57187,8.15833 2.74867,14.94139 2.61552,15.07452 -0.13316,0.13314 -2.50223,-0.5849 -5.26448,-1.59533 -2.76226,-1.01044 -7.5932,-2.76139 -10.73479,-3.89228 -3.14152,-1.13091 -6.10109,-2.41945 -6.57716,-2.8622 l -0.86523,-0.80448 1.07099,-3.22291 1.06973,-3.22291 -0.40035,-0.64829 c -0.22061,-0.35691 -0.8111,-0.64955 -1.31147,-0.64955 -0.50037,0 -3.56802,2.2134 -6.81769,4.91866 -3.24968,2.70525 -8.51866,7.06064 -11.70906,9.67863 l -5.80128,4.75999 -0.67801,1.85813 -0.67808,1.85937 2.89566,13.68991 c 1.59237,7.52991 3.15974,14.33376 3.48323,15.11916 0.32355,0.78539 0.85877,1.42799 1.19,1.42799 0.33123,0 1.15566,-0.70225 1.83088,-1.56063 0.67515,-0.85837 1.59916,-2.50057 2.05396,-3.64932 0.45487,-1.14875 1.23347,-2.56703 1.73048,-3.15225 l 0.90364,-1.0648 2.64153,1.11934 c 1.45262,0.61563 5.49633,1.94955 8.98692,2.96384 l 6.34665,1.84449 4.12532,0.004 4.12532,0.005 2.84241,-1.49246 c 1.5628,-0.8211 5.41839,-3.51815 8.56797,-5.99213 3.14965,-2.47397 9.72402,-7.82096 14.61087,-11.8826 4.88692,-4.06165 10.23734,-8.76081 11.88886,-10.44346 l 3.00222,-3.06053 1.44043,-2.92168 1.43911,-2.92169 -0.0781,-6.02932 -0.0781,-6.02931 -1.67844,-7.93331 c -0.92267,-4.36332 -1.98485,-9.50411 -2.36012,-11.42397 -0.37534,-1.91986 -1.00119,-3.87716 -1.39081,-4.34969 z" />
        <g
           id="g11975"
           transform="translate(-559.2325,-220.80615)">
          <path
             style="fill:#ffffff;fill-opacity:1;stroke-width:0.634665"
             d="m 1294.4884,951.5907 c 1.8792,-1.60543 3.8451,-3.74742 4.3687,-4.75999 1.2561,-2.42902 2.5395,-2.32637 3.9189,0.31347 0.6192,1.18497 2.6169,3.32696 4.4392,4.75999 l 3.3133,2.60549 h 6.1534 c 4.3382,0 6.45,-0.25949 7.1587,-0.87967 6.1345,-5.36825 7.5479,-7.42759 9.3059,-13.55895 0.1724,-0.60153 3.3394,-0.79098 13.0993,-0.78362 7.0795,0.005 13.213,0.22658 13.6299,0.49162 0.4169,0.26504 1.0241,1.66628 1.3493,3.11386 0.7247,3.22536 2.6278,5.98506 5.7116,8.28247 1.2846,0.95707 2.5641,2.09882 2.8433,2.53721 0.3522,0.55318 2.4605,0.79708 6.8899,0.79708 6.2405,0 6.4408,-0.0459 9.0013,-2.06266 1.4404,-1.13446 3.1118,-2.55061 3.7143,-3.14699 1.4606,-1.44572 3.6869,-5.87264 3.6869,-7.33143 0,-1.96122 1.363,-2.69048 5.0455,-2.69954 6.8419,-0.0168 6.3784,0.85972 6.3784,-12.0619 v -11.28786 l -1.904,-0.66373 -1.904,-0.66374 v -11.48787 -11.48787 l -6.3878,-6.29473 c -4.5673,-4.50074 -6.964,-6.40203 -8.4093,-6.67126 -1.1118,-0.2071 -8.3687,-0.28796 -16.1265,-0.1797 -13.703,0.19123 -14.1461,0.23804 -15.5492,1.64224 -1.4376,1.43868 -1.4448,1.53969 -1.5491,21.71068 -0.058,11.1459 -0.2887,20.56284 -0.5135,20.92653 -0.2773,0.44866 -15.0984,0.66126 -46.0986,0.66126 -49.3336,0 -48.767,-0.0377 -49.6629,3.30657 -0.5019,1.87377 -0.5019,7.3797 0,9.25348 0.5471,2.04219 3.3834,3.30657 7.4175,3.30657 3.7343,0 4.5132,0.52167 5.2173,3.4942 0.7743,3.26908 2.8294,6.24478 6.2196,9.00583 l 3.2696,2.66273 6.2782,0.0346 6.2782,0.0346 3.4167,-2.91896 z m 41.9235,-34.24048 c 3.7403,-1.86387 6.763,-5.32982 9.3821,-10.75775 1.741,-3.60838 1.839,-4.25711 1.8685,-12.37596 0.029,-8.07411 -0.07,-8.78491 -1.7313,-12.33162 -2.1287,-4.54548 -5.1869,-8.39253 -8.4929,-10.68356 -1.8623,-1.29061 -3.5586,-1.80255 -7.0466,-2.12673 -2.5267,-0.23482 -4.5939,-0.57766 -4.5939,-0.76184 0,-0.18419 0.4622,-0.84567 1.0272,-1.46995 0.6773,-0.74837 0.8894,-1.68433 0.6226,-2.7473 l -0.4047,-1.61224 h -10.7651 -10.7651 l -0.4046,1.61224 c -0.267,1.0635 -0.055,1.99908 0.6239,2.74883 0.5658,0.62513 0.8376,1.32761 0.6041,1.56109 -0.2334,0.23347 -5.108,0.42449 -10.8324,0.42449 -5.9607,0 -10.9324,0.28073 -11.6355,0.65699 -1.144,0.61227 -1.2276,1.4362 -1.2276,12.10036 0,11.2398 -0.4073,13.89857 -2.1291,13.89857 -0.4484,0 -1.2237,-0.92036 -1.723,-2.04524 -0.7203,-1.62268 -1.4324,-2.1538 -3.4466,-2.57066 -4.1383,-0.85647 -6.5539,-0.10057 -7.7598,2.42828 -0.5738,1.20319 -1.3616,2.18762 -1.7507,2.18762 -1.9499,0 -2.2308,-1.62728 -2.2405,-12.97889 0,-6.30064 -0.2717,-11.86982 -0.5919,-12.37597 -0.3202,-0.50614 -1.5379,-0.92026 -2.7061,-0.92026 -4.1305,0 -10.6603,5.91956 -13.0568,11.8365 -0.5302,1.30899 -1.2062,2.37999 -1.5023,2.37999 -0.2962,0 -0.5384,4.71239 -0.5384,10.47197 0,6.42261 0.2407,10.47197 0.6225,10.47197 0.3425,0 0.8126,0.78539 1.0449,1.74533 1.0982,4.53968 6.3447,10.24517 11.2323,12.21519 0.7591,0.30597 17.9603,0.57441 38.2248,0.59653 l 36.8446,0.0402 3.2474,-1.61821 z m -58.3726,-31.52452 c 1.0572,-0.86608 1.0154,-5.23205 -0.058,-6.12338 -1.2033,-0.99866 -8.437,-1.06503 -9.614,-0.0882 -1.9322,1.6036 -0.8751,6.37537 1.5805,7.13483 1.4762,0.45653 7.2057,-0.19718 8.092,-0.92324 z m -0.8347,-11.26809 c 1.2563,-0.47765 1.628,-1.0608 1.628,-2.55436 0,-2.32112 -1.7044,-3.18386 -6.2293,-3.15315 -3.3669,0.0228 -5.1947,1.08843 -5.1947,3.02846 0,2.78023 5.5429,4.29611 9.796,2.67905 z"
             id="path8586-4"
             sodipodi:nodetypes="sssscssscsssssssssscccccsssscsssssssccccsssccssssscccscssssssssscsssssscssccsccssccsssss" />
          <path
             style="fill:#072367;fill-opacity:1;stroke-width:0.634665"
             d="m 1314.2829,905.89533 c -2.9245,-0.82426 -5.9351,-4.51985 -5.9351,-7.28566 0,-4.26712 5.654,-13.5839 8.2435,-13.5839 2.3785,0 8.2578,9.34953 8.2578,13.1319 0,2.37763 -2.2077,6.00489 -4.3098,7.08105 -1.9386,0.99247 -4.2164,1.23153 -6.2564,0.65661 z"
             id="path8596" />
          <path
             style="fill:#072367;fill-opacity:1;stroke-width:0.634665"
             d="m 1376.2569,907.26296 -10.4719,-0.34126 -0.1801,-7.20781 c -0.1192,-4.77096 0.068,-7.50672 0.5537,-8.09197 0.558,-0.67231 2.6988,-0.88417 8.9344,-0.88417 h 8.2005 l 3.463,3.49081 3.4631,3.49081 v 4.4582 c 0,4.20162 -0.094,4.49384 -1.628,5.07717 -0.8954,0.34043 -1.6808,0.55832 -1.7453,0.48422 -0.065,-0.0741 -4.8298,-0.28831 -10.5894,-0.476 z"
             id="path8594" />
          <path
             style="fill:#072367;fill-opacity:1;stroke-width:0.634665"
             d="m 1375.0881,942.45009 c -2.5714,-2.16372 -2.5878,-4.14352 -0.052,-6.2774 2.3613,-1.98689 3.6917,-2.06084 5.895,-0.32768 3.1202,2.45434 1.8934,6.86168 -2.1939,7.88138 -1.2401,0.30937 -2.1381,-0.004 -3.6493,-1.2763 z"
             id="path8592" />
          <path
             style="fill:#072367;fill-opacity:1;stroke-width:0.634665"
             d="m 1314.0786,942.16313 c -2.3288,-2.1754 -2.203,-3.84279 0.4682,-6.20552 2.1263,-1.88078 3.8125,-1.80261 5.9836,0.27741 2.231,2.13744 2.2511,3.76277 0.075,6.03451 -2.1856,2.28126 -4.0022,2.25165 -6.5265,-0.1064 z"
             id="path8590" />
          <path
             style="fill:#072367;fill-opacity:1;stroke-width:0.634665"
             d="m 1283.1199,942.78721 c -1.9339,-1.1791 -2.3919,-2.15593 -2.0862,-4.44961 0.1954,-1.46608 3.2166,-3.80798 4.9125,-3.80798 1.8586,0 4.631,2.84961 4.631,4.75998 0,1.73108 -2.7088,4.76082 -4.2537,4.75761 -0.6275,-10e-4 -2.0691,-0.5683 -3.2036,-1.26 z"
             id="path8588" />
        </g>
      </g>
    </g>
  </g>
</svg>
